<svg xmlns="http://www.w3.org/2000/svg" xmlns:xlink="http://www.w3.org/1999/xlink" width="248" zoomAndPan="magnify" viewBox="0 0 186 34.499999" height="46" preserveAspectRatio="xMidYMid meet" version="1.0"><defs><g/><clipPath id="741fd7bd57"><path d="M 7.875 7.472656 L 24.878906 7.472656 L 24.878906 25.953125 L 7.875 25.953125 Z M 7.875 7.472656 " clip-rule="nonzero"/></clipPath><clipPath id="cac2323189"><path d="M 7.875 19 L 12 19 L 12 22 L 7.875 22 Z M 7.875 19 " clip-rule="nonzero"/></clipPath><clipPath id="f9ac8a55a6"><path d="M 16 11 L 24.878906 11 L 24.878906 18 L 16 18 Z M 16 11 " clip-rule="nonzero"/></clipPath><clipPath id="6cbcd4c2a0"><path d="M 7.875 11 L 17 11 L 17 18 L 7.875 18 Z M 7.875 11 " clip-rule="nonzero"/></clipPath><clipPath id="4629f6c65a"><path d="M 21 19 L 24.878906 19 L 24.878906 22 L 21 22 Z M 21 19 " clip-rule="nonzero"/></clipPath><clipPath id="11b54a4d88"><path d="M 16 16 L 17 16 L 17 25.953125 L 16 25.953125 Z M 16 16 " clip-rule="nonzero"/></clipPath><clipPath id="8864a3e3d8"><path d="M 16 7.472656 L 17 7.472656 L 17 12 L 16 12 Z M 16 7.472656 " clip-rule="nonzero"/></clipPath></defs><g clip-path="url(#741fd7bd57)"><path fill="#4c5270" d="M 16.414062 25.925781 C 16.351562 25.925781 16.289062 25.90625 16.230469 25.875 L 8.152344 21.464844 C 8.027344 21.394531 7.949219 21.265625 7.949219 21.125 L 7.949219 12.300781 C 7.949219 12.160156 8.027344 12.03125 8.152344 11.964844 L 16.230469 7.550781 C 16.34375 7.488281 16.484375 7.488281 16.597656 7.550781 L 24.675781 11.964844 C 24.800781 12.03125 24.878906 12.160156 24.878906 12.300781 L 24.878906 21.125 C 24.878906 21.265625 24.800781 21.394531 24.675781 21.464844 L 16.597656 25.875 C 16.542969 25.90625 16.476562 25.925781 16.414062 25.925781 Z M 8.71875 20.898438 L 16.414062 25.101562 L 24.109375 20.898438 L 24.109375 12.527344 L 16.414062 8.324219 L 8.71875 12.527344 Z M 24.492188 21.125 L 24.5 21.125 Z M 24.492188 21.125 " fill-opacity="1" fill-rule="nonzero"/></g><g clip-path="url(#cac2323189)"><path fill="#4c5270" d="M 8.335938 21.511719 C 8.199219 21.511719 8.066406 21.4375 8 21.3125 C 7.898438 21.125 7.964844 20.890625 8.152344 20.789062 L 11.230469 19.109375 C 11.414062 19.007812 11.648438 19.074219 11.75 19.261719 C 11.851562 19.445312 11.785156 19.679688 11.597656 19.78125 L 8.519531 21.464844 C 8.460938 21.496094 8.398438 21.511719 8.335938 21.511719 Z M 8.335938 21.511719 " fill-opacity="1" fill-rule="nonzero"/></g><g clip-path="url(#f9ac8a55a6)"><path fill="#4c5270" d="M 16.414062 17.097656 C 16.277344 17.097656 16.148438 17.023438 16.078125 16.898438 C 15.976562 16.710938 16.042969 16.476562 16.230469 16.375 L 24.308594 11.960938 C 24.492188 11.859375 24.726562 11.929688 24.832031 12.113281 C 24.933594 12.300781 24.863281 12.535156 24.679688 12.636719 L 16.601562 17.050781 C 16.539062 17.082031 16.476562 17.097656 16.414062 17.097656 Z M 16.414062 17.097656 " fill-opacity="1" fill-rule="nonzero"/></g><path fill="#4c5270" d="M 16.414062 22.855469 C 16.347656 22.855469 16.28125 22.835938 16.222656 22.800781 L 11.222656 19.925781 C 11.101562 19.855469 11.027344 19.730469 11.027344 19.589844 L 11.027344 13.835938 C 11.027344 13.699219 11.101562 13.570312 11.222656 13.503906 L 16.222656 10.625 C 16.339844 10.554688 16.488281 10.554688 16.605469 10.625 L 21.609375 13.503906 C 21.726562 13.570312 21.800781 13.699219 21.800781 13.835938 L 21.800781 19.589844 C 21.800781 19.730469 21.726562 19.855469 21.609375 19.925781 L 16.605469 22.800781 C 16.546875 22.835938 16.480469 22.855469 16.414062 22.855469 Z M 11.796875 19.371094 L 16.414062 22.027344 L 21.03125 19.371094 L 21.03125 14.058594 L 16.414062 11.398438 L 11.796875 14.058594 Z M 21.414062 19.589844 L 21.421875 19.589844 Z M 21.414062 19.589844 " fill-opacity="1" fill-rule="nonzero"/><g clip-path="url(#6cbcd4c2a0)"><path fill="#4c5270" d="M 16.414062 17.097656 C 16.351562 17.097656 16.289062 17.082031 16.230469 17.050781 L 8.152344 12.636719 C 7.964844 12.535156 7.898438 12.300781 8 12.117188 C 8.101562 11.929688 8.335938 11.863281 8.519531 11.964844 L 16.597656 16.378906 C 16.785156 16.480469 16.855469 16.710938 16.75 16.898438 C 16.683594 17.023438 16.550781 17.097656 16.414062 17.097656 Z M 16.414062 17.097656 " fill-opacity="1" fill-rule="nonzero"/></g><g clip-path="url(#4629f6c65a)"><path fill="#4c5270" d="M 24.492188 21.511719 C 24.429688 21.511719 24.367188 21.496094 24.308594 21.464844 L 21.230469 19.78125 C 21.042969 19.679688 20.976562 19.445312 21.078125 19.261719 C 21.179688 19.074219 21.417969 19.007812 21.601562 19.109375 L 24.679688 20.789062 C 24.863281 20.890625 24.933594 21.125 24.832031 21.3125 C 24.761719 21.4375 24.628906 21.511719 24.492188 21.511719 Z M 24.492188 21.511719 " fill-opacity="1" fill-rule="nonzero"/></g><g clip-path="url(#11b54a4d88)"><path fill="#4c5270" d="M 16.414062 25.925781 C 16.203125 25.925781 16.03125 25.753906 16.03125 25.539062 L 16.03125 16.714844 C 16.03125 16.5 16.203125 16.328125 16.414062 16.328125 C 16.625 16.328125 16.800781 16.5 16.800781 16.714844 L 16.800781 25.539062 C 16.800781 25.753906 16.625 25.925781 16.414062 25.925781 Z M 16.414062 25.925781 " fill-opacity="1" fill-rule="nonzero"/></g><g clip-path="url(#8864a3e3d8)"><path fill="#4c5270" d="M 16.414062 11.339844 C 16.203125 11.339844 16.03125 11.167969 16.03125 10.957031 L 16.03125 7.886719 C 16.03125 7.675781 16.203125 7.503906 16.414062 7.503906 C 16.625 7.503906 16.800781 7.675781 16.800781 7.886719 L 16.800781 10.957031 C 16.800781 11.167969 16.625 11.339844 16.414062 11.339844 Z M 16.414062 11.339844 " fill-opacity="1" fill-rule="nonzero"/></g><g fill="#e63946" fill-opacity="1"><g transform="translate(31.395661, 24.448353)"><g><path d="M 9.6875 -13.789062 C 9.6875 -15.761719 8.636719 -16.8125 6.664062 -16.8125 L 1.386719 -16.8125 C 1.175781 -16.8125 1.050781 -16.6875 1.050781 -16.476562 L 1.050781 -0.335938 C 1.050781 -0.125 1.175781 0 1.386719 0 L 3.574219 0 C 3.785156 0 3.910156 -0.125 3.910156 -0.335938 L 3.910156 -5.632812 L 5.359375 -5.632812 L 6.769531 -0.292969 C 6.808594 -0.105469 6.914062 0 7.125 0 L 9.3125 0 C 9.542969 0 9.667969 -0.125 9.605469 -0.378906 L 8.15625 -5.886719 C 9.164062 -6.328125 9.6875 -7.25 9.6875 -8.660156 Z M 3.910156 -8.40625 L 3.910156 -14.039062 L 5.988281 -14.039062 C 6.535156 -14.039062 6.832031 -13.746094 6.832031 -13.199219 L 6.832031 -9.246094 C 6.832031 -8.703125 6.535156 -8.40625 5.988281 -8.40625 Z M 3.910156 -8.40625 "/></g></g></g><g fill="#e63946" fill-opacity="1"><g transform="translate(42.553235, 24.448353)"><g><path d="M 11.179688 0 C 11.433594 0 11.519531 -0.125 11.476562 -0.355469 L 7.988281 -16.519531 C 7.945312 -16.730469 7.820312 -16.8125 7.628906 -16.8125 L 4.707031 -16.8125 C 4.519531 -16.8125 4.394531 -16.730469 4.351562 -16.519531 L 0.863281 -0.355469 C 0.796875 -0.125 0.902344 0 1.136719 0 L 3.382812 0 C 3.574219 0 3.679688 -0.105469 3.71875 -0.292969 L 4.289062 -3.363281 L 8.027344 -3.363281 L 8.617188 -0.292969 C 8.660156 -0.105469 8.765625 0 8.953125 0 Z M 7.503906 -5.800781 L 4.8125 -5.800781 L 6.160156 -13.136719 Z M 7.503906 -5.800781 "/></g></g></g><g fill="#e63946" fill-opacity="1"><g transform="translate(55.286709, 24.448353)"><g><path d="M 10.046875 0 C 10.382812 0 10.507812 -0.210938 10.363281 -0.484375 L 6.558594 -8.976562 L 10.128906 -16.308594 C 10.277344 -16.605469 10.152344 -16.8125 9.835938 -16.8125 L 7.628906 -16.8125 C 7.398438 -16.8125 7.25 -16.710938 7.144531 -16.5 L 3.910156 -9.878906 L 3.910156 -16.394531 C 3.910156 -16.667969 3.761719 -16.8125 3.488281 -16.8125 L 1.472656 -16.8125 C 1.199219 -16.8125 1.050781 -16.667969 1.050781 -16.394531 L 1.050781 -0.421875 C 1.050781 -0.148438 1.199219 0 1.472656 0 L 3.488281 0 C 3.761719 0 3.910156 -0.148438 3.910156 -0.421875 L 3.910156 -5.066406 L 4.6875 -6.558594 L 7.335938 -0.316406 C 7.417969 -0.105469 7.566406 0 7.820312 0 Z M 10.046875 0 "/></g></g></g><g fill="#1d3557" fill-opacity="1"><g transform="translate(66.962232, 24.448353)"><g><path d="M 1.386719 -16.8125 C 1.15625 -16.8125 1.050781 -16.6875 1.050781 -16.476562 L 1.050781 -0.335938 C 1.050781 -0.125 1.15625 0 1.386719 0 L 3.574219 0 C 3.785156 0 3.910156 -0.125 3.910156 -0.335938 L 3.910156 -16.476562 C 3.910156 -16.6875 3.785156 -16.8125 3.574219 -16.8125 Z M 1.386719 -16.8125 "/></g></g></g><g fill="#1d3557" fill-opacity="1"><g transform="translate(72.341542, 24.448353)"><g><path d="M 9.480469 -13.789062 C 9.480469 -15.761719 8.40625 -16.8125 6.429688 -16.8125 L 1.386719 -16.8125 C 1.175781 -16.8125 1.050781 -16.710938 1.050781 -16.476562 L 1.050781 -0.335938 C 1.050781 -0.125 1.175781 0 1.386719 0 L 6.429688 0 C 8.40625 0 9.480469 -1.050781 9.480469 -3.027344 L 9.480469 -6.894531 C 9.480469 -7.671875 8.910156 -8.261719 8.15625 -8.386719 L 8.15625 -8.429688 C 8.910156 -8.554688 9.480469 -9.144531 9.480469 -9.921875 Z M 6.683594 -10.613281 C 6.683594 -10.089844 6.390625 -9.792969 5.84375 -9.792969 L 3.929688 -9.792969 L 3.929688 -14.039062 L 5.84375 -14.039062 C 6.410156 -14.039062 6.683594 -13.746094 6.683594 -13.199219 Z M 6.683594 -3.613281 C 6.683594 -3.046875 6.390625 -2.773438 5.84375 -2.773438 L 3.929688 -2.773438 L 3.929688 -7.019531 L 5.84375 -7.019531 C 6.410156 -7.019531 6.683594 -6.726562 6.683594 -6.179688 Z M 6.683594 -3.613281 "/></g></g></g><g fill="#1d3557" fill-opacity="1"><g transform="translate(83.289003, 24.448353)"><g><path d="M 7.105469 -16.8125 C 6.871094 -16.8125 6.683594 -16.625 6.683594 -16.394531 L 6.683594 -3.613281 C 6.683594 -3.046875 6.390625 -2.773438 5.84375 -2.773438 L 4.75 -2.773438 C 4.203125 -2.773438 3.910156 -3.046875 3.910156 -3.613281 L 3.910156 -16.394531 C 3.910156 -16.625 3.71875 -16.8125 3.488281 -16.8125 L 1.472656 -16.8125 C 1.238281 -16.8125 1.050781 -16.625 1.050781 -16.394531 L 1.050781 -3.027344 C 1.050781 -1.050781 2.101562 0 4.078125 0 L 6.429688 0 C 8.40625 0 9.457031 -1.050781 9.457031 -3.027344 L 9.457031 -16.394531 C 9.457031 -16.625 9.269531 -16.8125 9.039062 -16.8125 Z M 7.105469 -16.8125 "/></g></g></g><g fill="#1d3557" fill-opacity="1"><g transform="translate(94.21545, 24.448353)"><g><path d="M 3.910156 -2.773438 L 8.910156 -2.773438 C 9.144531 -2.773438 9.246094 -2.648438 9.246094 -2.4375 L 9.246094 -0.335938 C 9.246094 -0.105469 9.144531 0 8.910156 0 L 1.386719 0 C 1.175781 0 1.050781 -0.105469 1.050781 -0.335938 L 1.050781 -16.476562 C 1.050781 -16.6875 1.175781 -16.8125 1.386719 -16.8125 L 3.574219 -16.8125 C 3.804688 -16.8125 3.910156 -16.6875 3.910156 -16.476562 Z M 3.910156 -2.773438 "/></g></g></g><g fill="#457b9d" fill-opacity="1"><g transform="translate(104.931482, 24.448353)"><g><path d="M 9.6875 -13.789062 C 9.6875 -15.761719 8.636719 -16.8125 6.664062 -16.8125 L 1.386719 -16.8125 C 1.175781 -16.8125 1.050781 -16.6875 1.050781 -16.476562 L 1.050781 -0.335938 C 1.050781 -0.125 1.175781 0 1.386719 0 L 3.574219 0 C 3.785156 0 3.910156 -0.125 3.910156 -0.335938 L 3.910156 -5.632812 L 5.359375 -5.632812 L 6.769531 -0.292969 C 6.808594 -0.105469 6.914062 0 7.125 0 L 9.3125 0 C 9.542969 0 9.667969 -0.125 9.605469 -0.378906 L 8.15625 -5.886719 C 9.164062 -6.328125 9.6875 -7.25 9.6875 -8.660156 Z M 3.910156 -8.40625 L 3.910156 -14.039062 L 5.988281 -14.039062 C 6.535156 -14.039062 6.832031 -13.746094 6.832031 -13.199219 L 6.832031 -9.246094 C 6.832031 -8.703125 6.535156 -8.40625 5.988281 -8.40625 Z M 3.910156 -8.40625 "/></g></g></g><g fill="#457b9d" fill-opacity="1"><g transform="translate(116.089055, 24.448353)"><g><path d="M 1.386719 -16.8125 C 1.15625 -16.8125 1.050781 -16.6875 1.050781 -16.476562 L 1.050781 -0.335938 C 1.050781 -0.125 1.15625 0 1.386719 0 L 3.574219 0 C 3.785156 0 3.910156 -0.125 3.910156 -0.335938 L 3.910156 -16.476562 C 3.910156 -16.6875 3.785156 -16.8125 3.574219 -16.8125 Z M 1.386719 -16.8125 "/></g></g></g><g fill="#457b9d" fill-opacity="1"><g transform="translate(121.468365, 24.448353)"><g><path d="M 11.179688 0 C 11.433594 0 11.519531 -0.125 11.476562 -0.355469 L 7.988281 -16.519531 C 7.945312 -16.730469 7.820312 -16.8125 7.628906 -16.8125 L 4.707031 -16.8125 C 4.519531 -16.8125 4.394531 -16.730469 4.351562 -16.519531 L 0.863281 -0.355469 C 0.796875 -0.125 0.902344 0 1.136719 0 L 3.382812 0 C 3.574219 0 3.679688 -0.105469 3.71875 -0.292969 L 4.289062 -3.363281 L 8.027344 -3.363281 L 8.617188 -0.292969 C 8.660156 -0.105469 8.765625 0 8.953125 0 Z M 7.503906 -5.800781 L 4.8125 -5.800781 L 6.160156 -13.136719 Z M 7.503906 -5.800781 "/></g></g></g><g fill="#457b9d" fill-opacity="1"><g transform="translate(134.201841, 24.448353)"><g><path d="M 1.050781 -0.335938 C 1.050781 -0.105469 1.15625 0 1.386719 0 L 6.429688 0 C 8.40625 0 9.457031 -1.050781 9.457031 -3.027344 L 9.457031 -13.765625 C 9.457031 -15.742188 8.40625 -16.8125 6.429688 -16.8125 L 1.386719 -16.8125 C 1.15625 -16.8125 1.050781 -16.6875 1.050781 -16.476562 Z M 3.910156 -2.773438 L 3.910156 -14.039062 L 5.84375 -14.039062 C 6.390625 -14.039062 6.683594 -13.746094 6.683594 -13.179688 L 6.683594 -3.613281 C 6.683594 -3.046875 6.390625 -2.773438 5.84375 -2.773438 Z M 3.910156 -2.773438 "/></g></g></g><g fill="#000000" fill-opacity="1"><g transform="translate(145.118588, 24.448353)"><g><path d="M 1.050781 -0.421875 C 1.050781 -0.148438 1.199219 0 1.472656 0 L 3.382812 0 C 3.65625 0 3.804688 -0.148438 3.804688 -0.421875 L 3.804688 -2.355469 C 3.804688 -2.628906 3.65625 -2.773438 3.382812 -2.773438 L 1.472656 -2.773438 C 1.199219 -2.773438 1.050781 -2.628906 1.050781 -2.355469 Z M 1.050781 -0.421875 "/></g></g></g><g fill="#a8dadc" fill-opacity="1"><g transform="translate(150.385999, 24.448353)"><g><path d="M 9.835938 -16.8125 C 9.585938 -16.8125 9.4375 -16.6875 9.375 -16.4375 L 7.039062 -5.96875 L 4.707031 -16.4375 C 4.644531 -16.6875 4.496094 -16.8125 4.246094 -16.8125 L 1.472656 -16.8125 C 1.199219 -16.8125 1.050781 -16.667969 1.050781 -16.394531 L 1.050781 -0.421875 C 1.050781 -0.148438 1.199219 0 1.472656 0 L 3.40625 0 C 3.679688 0 3.824219 -0.148438 3.824219 -0.421875 L 3.824219 -9.878906 L 3.972656 -9.878906 L 6.054688 -0.378906 C 6.117188 -0.125 6.261719 0 6.515625 0 L 7.546875 0 C 7.796875 0 7.945312 -0.125 8.007812 -0.378906 L 10.089844 -9.878906 L 10.234375 -9.878906 L 10.234375 -0.421875 C 10.234375 -0.148438 10.382812 0 10.65625 0 L 12.609375 0 C 12.882812 0 13.03125 -0.148438 13.03125 -0.421875 L 13.03125 -16.394531 C 13.03125 -16.667969 12.882812 -16.8125 12.609375 -16.8125 Z M 9.835938 -16.8125 "/></g></g></g><g fill="#a8dadc" fill-opacity="1"><g transform="translate(164.88447, 24.448353)"><g><path d="M 9.4375 -16.476562 C 9.4375 -16.6875 9.351562 -16.8125 9.101562 -16.8125 L 1.367188 -16.8125 C 1.175781 -16.8125 1.050781 -16.6875 1.050781 -16.476562 L 1.050781 -0.335938 C 1.050781 -0.125 1.175781 0 1.367188 0 L 9.101562 0 C 9.351562 0 9.4375 -0.125 9.4375 -0.335938 L 9.4375 -2.4375 C 9.4375 -2.667969 9.351562 -2.773438 9.101562 -2.773438 L 3.847656 -2.773438 L 3.847656 -7.019531 L 7.859375 -7.019531 C 8.070312 -7.019531 8.195312 -7.144531 8.195312 -7.378906 L 8.195312 -9.457031 C 8.195312 -9.6875 8.070312 -9.816406 7.859375 -9.816406 L 3.847656 -9.816406 L 3.847656 -14.019531 L 9.101562 -14.019531 C 9.351562 -14.019531 9.4375 -14.167969 9.4375 -14.375 Z M 9.4375 -16.476562 "/></g></g></g></svg>